<svg width="169" height="290" viewBox="0 0 169 290" fill="none" xmlns="http://www.w3.org/2000/svg">
<path fill-rule="evenodd" clip-rule="evenodd" d="M0.0299683 0.900635H168.39V181.339H0.0299683V0.900635Z" fill="#4AF6CD"/>
<path d="M60.3506 155.723C60.3506 152.563 60.8106 149.783 61.7306 147.383C62.6506 144.943 64.0306 142.763 65.8706 140.843L71.7506 145.823C69.4706 148.703 68.3306 151.723 68.3306 154.883C68.3306 156.523 68.6506 157.783 69.2906 158.663C69.8906 159.503 70.7506 159.923 71.8706 159.923C72.6706 159.923 73.3306 159.703 73.8506 159.263C74.3706 158.823 74.8706 158.083 75.3506 157.043C75.8306 156.003 76.4306 154.363 77.1506 152.123C78.5106 147.843 80.2306 144.723 82.3106 142.763C84.3506 140.763 87.1906 139.763 90.8306 139.763C93.4706 139.763 95.8106 140.443 97.8506 141.803C99.8506 143.163 101.411 145.143 102.531 147.743C103.651 150.303 104.211 153.323 104.211 156.803C104.211 163.443 102.191 168.863 98.1506 173.063L92.0906 167.603C94.8106 164.283 96.1706 160.823 96.1706 157.223C96.1706 155.343 95.7706 153.883 94.9706 152.843C94.1306 151.803 93.0306 151.283 91.6706 151.283C90.7106 151.283 89.9306 151.483 89.3306 151.883C88.6906 152.283 88.1306 153.003 87.6506 154.043C87.1306 155.043 86.5706 156.523 85.9706 158.483C84.4906 163.203 82.7106 166.523 80.6306 168.443C78.5506 170.363 75.9306 171.323 72.7706 171.323C70.2906 171.323 68.1106 170.663 66.2306 169.343C64.3506 167.983 62.9106 166.123 61.9106 163.763C60.8706 161.363 60.3506 158.683 60.3506 155.723ZM89.1506 102.319C92.0306 102.319 94.6106 102.959 96.8906 104.239C99.1706 105.479 100.971 107.359 102.291 109.879C103.571 112.399 104.211 115.479 104.211 119.119C104.211 124.639 102.871 128.819 100.191 131.659C97.4706 134.499 93.7906 135.919 89.1506 135.919H61.4306V124.819H88.7906C91.3106 124.819 93.1706 124.379 94.3706 123.499C95.5306 122.579 96.1106 121.119 96.1106 119.119C96.1106 117.119 95.5106 115.679 94.3106 114.799C93.1106 113.919 91.2706 113.479 88.7906 113.479H61.4306V102.319H89.1506ZM87.7706 82.3111V85.3711H103.131V96.4711H61.4306V82.0111C61.4306 76.1311 62.4906 71.7511 64.6106 68.8711C66.7306 65.9511 69.9906 64.4911 74.3906 64.4911C77.0306 64.4911 79.2306 65.1111 80.9906 66.3511C82.7506 67.5511 84.3306 69.4911 85.7306 72.1711L103.131 61.7911V74.1511L87.7706 82.3111ZM80.2106 85.3711V81.6511C80.2106 77.8111 78.2706 75.8911 74.3906 75.8911C72.5906 75.8911 71.2706 76.4311 70.4306 77.5111C69.5906 78.5511 69.1706 80.1311 69.1706 82.2511V85.3711H80.2106ZM103.131 59.264H61.4306V33.644L69.2906 34.784V48.164H79.3106V36.404H87.1706V48.164H103.131V59.264Z" fill="white"/>
<path d="M60.3506 267.92C60.3506 262.36 62.1106 257.58 65.6306 253.58L71.3306 259.04C70.2506 260.56 69.4706 261.94 68.9906 263.18C68.4706 264.38 68.2106 265.76 68.2106 267.32C68.2106 270.32 69.3706 272.68 71.6906 274.4C74.0106 276.08 77.5506 276.92 82.3106 276.92C85.7906 276.92 88.5506 276.64 90.5906 276.08C92.5906 275.52 94.0306 274.68 94.9106 273.56C95.7906 272.4 96.2306 270.92 96.2306 269.12C96.2306 267.32 95.8506 265.68 95.0906 264.2H86.5106V268.94L78.8906 270.02V253.46H99.6506C101.091 255.62 102.211 258.06 103.011 260.78C103.811 263.5 104.211 266.18 104.211 268.82C104.211 281.86 96.8906 288.38 82.2506 288.38C77.6906 288.38 73.7706 287.5 70.4906 285.74C67.1706 283.94 64.6506 281.5 62.9306 278.42C61.2106 275.34 60.3506 271.84 60.3506 267.92ZM60.3506 230.335C60.3506 224.295 62.2706 219.595 66.1106 216.235C69.9506 212.875 75.3306 211.195 82.2506 211.195C86.7706 211.195 90.6906 211.955 94.0106 213.475C97.2906 214.955 99.8106 217.135 101.571 220.015C103.331 222.895 104.211 226.335 104.211 230.335C104.211 236.375 102.291 241.075 98.4506 244.435C94.6106 247.755 89.2106 249.415 82.2506 249.415C77.7306 249.415 73.8306 248.675 70.5506 247.195C67.2706 245.675 64.7506 243.495 62.9906 240.655C61.2306 237.775 60.3506 234.335 60.3506 230.335ZM68.3306 230.335C68.3306 232.935 69.4106 234.855 71.5706 236.095C73.7306 237.295 77.2906 237.895 82.2506 237.895C87.2106 237.895 90.7906 237.275 92.9906 236.035C95.1506 234.795 96.2306 232.895 96.2306 230.335C96.2306 227.695 95.1506 225.775 92.9906 224.575C90.8306 223.375 87.2506 222.775 82.2506 222.775C77.2906 222.775 73.7306 223.375 71.5706 224.575C69.4106 225.775 68.3306 227.695 68.3306 230.335Z" fill="white"/>
<rect x="83.8308" y="202" width="20" height="1.00857" transform="rotate(-90 83.8308 202)" fill="white"/>
</svg>
